<svg width="743" height="743" viewBox="0 0 743 743" fill="none" xmlns="http://www.w3.org/2000/svg">
<circle cx="372" cy="372" r="312" fill="#DE5AD0" stroke="black" stroke-width="4"/>
<path d="M361.93 74.1799C367.781 70.5063 375.219 70.5063 381.071 74.1799L442.402 112.683C445.214 114.449 448.461 115.402 451.782 115.437L524.192 116.204C531.101 116.277 537.358 120.299 540.295 126.553L571.073 192.101C572.485 195.108 574.7 197.665 577.475 199.49L637.976 239.283C643.749 243.08 646.839 249.846 645.928 256.695L636.382 328.478C635.944 331.77 636.426 335.119 637.773 338.154L667.156 404.34C669.96 410.655 668.901 418.017 664.432 423.286L617.593 478.513C615.445 481.046 614.039 484.123 613.532 487.406L602.467 558.97C601.412 565.798 596.541 571.42 589.932 573.436L520.671 594.573C517.494 595.542 514.648 597.371 512.447 599.858L464.448 654.08C459.868 659.254 452.732 661.349 446.082 659.473L376.388 639.808C373.192 638.906 369.809 638.906 366.612 639.808L296.919 659.473C290.269 661.349 283.132 659.254 278.553 654.08L230.554 599.858C228.353 597.371 225.506 595.542 222.33 594.573L153.068 573.436C146.46 571.42 141.589 565.798 140.533 558.97L129.469 487.406C128.962 484.123 127.556 481.046 125.408 478.513L78.5686 423.286C74.0996 418.017 73.041 410.655 75.8445 404.34L105.227 338.154C106.575 335.119 107.057 331.77 106.619 328.478L97.0727 256.695C96.1619 249.846 99.2518 243.08 105.024 239.283L165.526 199.49C168.3 197.665 170.516 195.108 171.927 192.101L202.706 126.553C205.642 120.299 211.899 116.277 218.808 116.204L291.219 115.437C294.54 115.402 297.786 114.449 300.599 112.683L361.93 74.1799Z" fill="#FFCFFA" stroke="black" stroke-width="4"/>
<path d="M312.495 186.045C317.196 180.982 324.381 179.056 330.984 181.09L371.283 193.504C374.457 194.481 377.839 194.562 381.056 193.736L421.9 183.255C428.592 181.537 435.677 183.802 440.132 189.083L467.322 221.313C469.464 223.851 472.266 225.748 475.418 226.792L515.445 240.056C522.004 242.23 526.739 247.965 527.632 254.816L533.081 296.63C533.511 299.923 534.843 303.034 536.93 305.617L563.431 338.415C567.774 343.79 568.657 351.175 565.704 357.421L547.682 395.543C546.262 398.546 545.701 401.882 546.061 405.184L550.623 447.104C551.371 453.972 548.121 460.663 542.259 464.321L506.488 486.648C503.671 488.406 501.395 490.91 499.912 493.882L481.087 531.614C478.002 537.796 471.651 541.667 464.742 541.576L422.579 541.019C419.258 540.975 415.99 541.851 413.136 543.549L376.899 565.113C370.962 568.647 363.526 568.47 357.764 564.658L322.594 541.394C319.824 539.562 316.602 538.531 313.283 538.417L271.14 536.967C264.235 536.73 258.075 532.561 255.288 526.239L238.28 487.654C236.94 484.615 234.786 482.006 232.055 480.115L197.387 456.112C191.706 452.179 188.778 445.341 189.852 438.516L196.404 396.861C196.92 393.58 196.518 390.22 195.243 387.154L179.055 348.217C176.403 341.838 177.636 334.503 182.229 329.341L210.262 297.841C212.469 295.36 213.948 292.316 214.533 289.047L221.966 247.54C223.184 240.739 228.187 235.236 234.841 233.377L275.454 222.032C278.653 221.139 281.542 219.378 283.802 216.944L312.495 186.045Z" fill="#DE5AD0" stroke="black" stroke-width="4"/>
<path d="M323.495 290.752C327.246 284.95 333.987 281.806 340.843 282.663L353.638 284.261C356.933 284.673 360.278 284.164 363.303 282.793L375.046 277.468C381.338 274.614 388.709 275.614 394.013 280.041L403.913 288.303C406.462 290.431 409.551 291.812 412.837 292.294L425.595 294.163C432.431 295.164 438.091 299.99 440.16 306.582L444.021 318.885C445.016 322.053 446.868 324.885 449.372 327.067L459.094 335.536C464.303 340.075 466.456 347.195 464.632 353.859L461.229 366.296C460.353 369.499 460.38 372.882 461.307 376.071L464.907 388.453C466.835 395.087 464.797 402.24 459.66 406.861L450.073 415.484C447.604 417.705 445.797 420.565 444.853 423.75L441.188 436.112C439.224 442.736 433.641 447.651 426.822 448.761L414.095 450.832C410.817 451.365 407.751 452.795 405.235 454.963L395.468 463.381C390.234 467.892 382.88 469.009 376.544 466.256L364.717 461.117C361.672 459.794 358.319 459.339 355.03 459.803L342.263 461.604C335.421 462.569 328.631 459.533 324.789 453.791L317.618 443.075C315.771 440.315 313.196 438.119 310.179 436.732L298.464 431.344C292.187 428.457 288.116 422.232 287.989 415.324L287.75 402.432C287.688 399.112 286.709 395.873 284.921 393.074L277.979 382.209C274.259 376.386 274.2 368.949 277.827 363.068L284.596 352.094C286.339 349.267 287.267 346.013 287.276 342.692L287.31 329.798C287.328 322.889 291.3 316.6 297.53 313.614L309.158 308.041C312.153 306.606 314.692 304.37 316.495 301.581L323.495 290.752Z" fill="#8A2D99" stroke="black" stroke-width="4"/>
<circle cx="371.999" cy="371" r="50" fill="#DE5AD0" stroke="black" stroke-width="4"/>
</svg>
